<svg width="25" height="25" viewBox="0 0 26 25" fill="none" xmlns="http://www.w3.org/2000/svg">
<path fill-rule="evenodd" clip-rule="evenodd" d="M6.04686 24.6621C5.77989 24.6621 5.5259 24.5756 5.31235 24.412C4.9251 24.1198 4.73473 23.6325 4.81555 23.1403L6.03055 15.8242L0.880749 10.6438C0.535709 10.2979 0.412949 9.78682 0.560349 9.31004C0.704979 8.84224 1.10099 8.49427 1.56925 8.42354L8.69545 7.34714L11.8796 0.68354C12.0749 0.27427 12.504 0.0200195 12.9994 0.0200195C13.4947 0.0200195 13.9241 0.27427 14.1197 0.68354L17.303 7.34714L24.4292 8.42354C24.8984 8.49427 25.2944 8.84224 25.4381 9.31004C25.5839 9.77864 25.4585 10.3022 25.1186 10.6438L19.9679 15.8242L21.1829 23.1403C21.2638 23.6329 21.0738 24.1202 20.687 24.412C20.4755 24.5751 20.2212 24.6613 19.9517 24.6613C19.7465 24.6613 19.5518 24.612 19.373 24.5146L12.9992 21.0514L6.62545 24.5146C6.4474 24.6111 6.24733 24.662 6.04686 24.6621ZM12.9992 18.2848C13.1998 18.2848 13.3999 18.3359 13.5779 18.4324L18.2894 20.9929L17.393 15.5893C17.322 15.1657 17.4576 14.7337 17.7557 14.4337L21.551 10.6168L16.2968 9.82124C15.8899 9.75988 15.5386 9.49543 15.3572 9.11384L12.9992 4.18184L10.6421 9.11384C10.4598 9.49563 10.1082 9.76008 9.70165 9.82124L4.44835 10.6168L8.24365 14.4337C8.54121 14.734 8.67646 15.166 8.60545 15.5893L7.70905 20.9929L12.4205 18.4324C12.5995 18.3359 12.7996 18.2848 12.9992 18.2848Z" fill="#0095FF"/>
</svg>